HIERARCHY
ROOT Pelvis
{
	OFFSET 0.000000 0.000000 0.000000
	CHANNELS 6 Xposition Yposition Zposition Xrotation Yrotation Zrotation
	JOINT LeftUpLeg_virtual
	{
		OFFSET 0.000000 0.000000 0.000000
		CHANNELS 3 Xrotation Yrotation Zrotation
		JOINT LeftUpLeg
		{
			OFFSET 18.735201 -5.666702 -4.541200
			CHANNELS 3 Xrotation Yrotation Zrotation
			JOINT LeftLeg
			{
				OFFSET -0.021200 -31.938179 0.493100
				CHANNELS 3 Xrotation Yrotation Zrotation
				JOINT LeftFoot
				{
					OFFSET 0.021200 -31.938179 -4.336299
					CHANNELS 3 Xrotation Yrotation Zrotation
					JOINT LeftToeBase
					{
						OFFSET 0.943001 -26.722000 15.023500
						CHANNELS 3 Xrotation Yrotation Zrotation
						End Site
						{
							OFFSET 0 0 0
						}
					}
				}
			}
		}
	}
	JOINT RightUpLeg_virtual
	{
		OFFSET 0.000000 0.000000 0.000000
		CHANNELS 3 Xrotation Yrotation Zrotation
		JOINT RightUpLeg
		{
			OFFSET -18.735201 -5.666702 -4.541200
			CHANNELS 3 Xrotation Yrotation Zrotation
			JOINT RightLeg
			{
				OFFSET 0.018946 -31.938133 0.493100
				CHANNELS 3 Xrotation Yrotation Zrotation
				JOINT RightFoot
				{
					OFFSET -0.018946 -31.938126 -4.336299
					CHANNELS 3 Xrotation Yrotation Zrotation
					JOINT RightToeBase
					{
						OFFSET -0.943001 -26.722004 15.023500
						CHANNELS 3 Xrotation Yrotation Zrotation
						End Site
						{
							OFFSET 0 0 0
						}
					}
				}
			}
		}
	}
	JOINT Hips_virtual
	{
		OFFSET 0.000000 0.000000 0.000000
		CHANNELS 3 Xrotation Yrotation Zrotation
		JOINT Hips
		{
			OFFSET -0.000000 -0.000000 -0.000000
			CHANNELS 3 Xrotation Yrotation Zrotation
			JOINT Spine
			{
				OFFSET 0.000000 10.199997 -0.299500
				CHANNELS 3 Xrotation Yrotation Zrotation
				JOINT Spine1
				{
					OFFSET 0.000000 11.900002 -1.516600
					CHANNELS 3 Xrotation Yrotation Zrotation
					JOINT Spine2
					{
						OFFSET 0.000000 13.600006 -2.842500
						CHANNELS 3 Xrotation Yrotation Zrotation
						JOINT Neck_virtual
						{
							OFFSET 0.000000 0.000000 0.000000
							CHANNELS 3 Xrotation Yrotation Zrotation
							JOINT Neck
							{
								OFFSET 0.000000 9.624100 -2.890100
								CHANNELS 3 Xrotation Yrotation Zrotation
								JOINT Head
								{
									OFFSET 0.000000 14.068802 -1.351900
									CHANNELS 3 Xrotation Yrotation Zrotation
									End Site
									{
										OFFSET 0 0 0
									}
								}
							}
						}
						JOINT LeftShoulder_virtual
						{
							OFFSET 0.000000 0.000000 0.000000
							CHANNELS 3 Xrotation Yrotation Zrotation
							JOINT LeftShoulder
							{
								OFFSET 15.263000 10.923401 -0.547700
								CHANNELS 3 Xrotation Yrotation Zrotation
								JOINT LeftArm
								{
									OFFSET 25.438599 -2.830597 -13.032500
									CHANNELS 3 Xrotation Yrotation Zrotation
									JOINT LeftForeArm
									{
										OFFSET 29.960503 0.000000 0.000000
										CHANNELS 3 Xrotation Yrotation Zrotation
										JOINT LeftHand
										{
											OFFSET 27.849251 0.000000 0.000000
											CHANNELS 3 Xrotation Yrotation Zrotation
											End Site
											{
												OFFSET 0 0 0
											}
										}
									}
								}
							}
						}
						JOINT RightShoulder_virtual
						{
							OFFSET 0.000000 0.000000 0.000000
							CHANNELS 3 Xrotation Yrotation Zrotation
							JOINT RightShoulder
							{
								OFFSET -15.263000 10.923401 -0.547700
								CHANNELS 3 Xrotation Yrotation Zrotation
								JOINT RightArm
								{
									OFFSET -25.438599 -2.830597 -13.032500
									CHANNELS 3 Xrotation Yrotation Zrotation
									JOINT RightForeArm
									{
										OFFSET -29.960503 0.000000 0.000000
										CHANNELS 3 Xrotation Yrotation Zrotation
										JOINT RightHand
										{
											OFFSET -27.849251 0.000000 0.000000
											CHANNELS 3 Xrotation Yrotation Zrotation
											End Site
											{
												OFFSET 0 0 0
											}
										}
									}
								}
							}
						}
					}
				}
			}
		}
	}
}
MOTION
Frames: 9
Frame Time: 0.03333333
-121.356956 38.664581 8.097734 0.000000 0.000000 0.000000 -26.417423 40.973547 -40.551837 -92.793523 28.632583 4.097430 56.512651 0.678227 18.821186 -2.813910 -9.147358 19.124151 0.000000 0.000000 0.000000 -33.729035 26.102804 -11.922737 -72.680630 14.389621 -26.271339 100.607600 15.497959 -8.185209 27.881940 22.095266 19.655483 0.000000 0.000000 0.000000 6.636625 -8.657471 -5.336870 17.644108 -5.241140 -40.352256 20.320030 -0.661429 -6.749604 8.197211 0.588086 -3.005536 0.000000 0.000000 0.000000 6.039772 1.705173 -2.479275 0.781320 0.990535 -0.912553 0.000000 0.000000 0.000000 7.768445 -0.138878 -3.528550 0.434285 -10.698962 -16.662824 -26.016454 11.156424 -24.831865 -4.892584 -26.428732 2.626254 0.000000 0.000000 0.000000 5.640033 1.606251 -3.076474 1.526965 6.737527 -8.702089 -23.335408 -24.936806 13.237801 -6.796186 17.357777 -3.878459 0.000000 0.000000 0.000000 
-120.625717 39.768314 6.940300 0.000000 0.000000 0.000000 -25.281887 40.907267 -41.757451 -92.270569 29.148047 3.583411 56.843133 1.000050 18.658952 -2.644524 -8.810287 19.113692 0.000000 0.000000 0.000000 -33.473422 26.388788 -11.622324 -72.392997 14.371575 -26.043400 97.941750 15.651288 -7.574044 25.978548 21.522882 20.293891 0.000000 0.000000 0.000000 6.296485 -9.432324 -5.438924 16.808925 -5.670494 -41.266312 20.167050 -1.059796 -7.161694 8.195488 0.395619 -3.306164 0.000000 0.000000 0.000000 6.178347 1.580123 -2.605770 0.771031 1.030891 -0.961710 0.000000 0.000000 0.000000 7.898840 -0.246042 -3.504335 0.590323 -10.376145 -16.482551 -26.616798 10.831727 -24.660625 -5.165356 -27.545163 2.859028 0.000000 0.000000 0.000000 5.716587 1.478587 -3.363714 1.528094 6.067063 -9.540230 -22.373352 -26.495721 11.819512 -6.425446 17.757582 -4.616170 0.000000 0.000000 0.000000 
-119.812195 41.059673 5.881069 0.000000 0.000000 0.000000 -24.167397 41.365972 -42.853720 -92.048226 29.560106 3.428189 57.855336 1.997252 18.530735 -2.006854 -7.949186 19.621795 0.000000 0.000000 0.000000 -32.890708 26.822180 -11.346602 -71.834220 14.336892 -25.863401 95.270409 15.762868 -6.967750 24.150921 20.944910 20.862019 0.000000 0.000000 0.000000 6.056747 -10.337527 -5.533908 16.222094 -6.332948 -42.220603 20.048265 -1.510035 -7.472852 8.213636 0.166482 -3.550872 0.000000 0.000000 0.000000 6.248540 1.419344 -2.679737 0.736502 1.054190 -0.991501 0.000000 0.000000 0.000000 8.000992 -0.399121 -3.424907 0.721335 -10.179278 -16.141943 -27.309904 10.492931 -24.337878 -5.449129 -28.557043 3.103997 0.000000 0.000000 0.000000 5.686865 1.297777 -3.565621 1.398937 5.274373 -10.109017 -21.600234 -28.170374 10.692044 -6.152613 18.093325 -5.227825 0.000000 0.000000 0.000000 
-119.069244 42.545906 4.799446 0.000000 0.000000 0.000000 -23.389049 41.776811 -44.001646 -92.215183 29.795846 3.546893 59.759579 3.656339 18.414292 -0.903963 -6.578867 20.565688 0.000000 0.000000 0.000000 -31.857679 27.782245 -11.270163 -70.912875 14.434833 -25.868851 92.620084 15.743733 -6.354923 22.466734 20.278502 21.272441 0.000000 0.000000 0.000000 5.883490 -11.296031 -5.613711 15.845650 -7.077671 -43.133020 19.918606 -1.989662 -7.698503 8.224258 -0.087326 -3.744880 0.000000 0.000000 0.000000 6.240113 1.236579 -2.712228 0.676096 1.066087 -1.005687 0.000000 0.000000 0.000000 8.074499 -0.583607 -3.298601 0.835356 -10.070799 -15.658822 -28.117541 10.090614 -23.999048 -5.754016 -29.582297 3.313001 0.000000 0.000000 0.000000 5.559749 1.077765 -3.715902 1.167844 4.397671 -10.529987 -21.112738 -29.812707 9.721441 -5.986677 18.494059 -5.746535 0.000000 0.000000 0.000000 
-118.596794 44.291817 3.775517 0.000000 0.000000 0.000000 -22.430157 41.707184 -45.109605 -92.157468 29.908487 3.719686 62.405861 5.727079 17.958850 0.548980 -4.738638 21.405922 0.000000 0.000000 0.000000 -30.554482 28.525587 -11.474174 -69.769501 14.507137 -26.053897 90.126784 15.473240 -5.714468 21.104936 19.430442 21.436450 0.000000 0.000000 0.000000 5.723889 -12.129023 -5.689622 15.662051 -7.550211 -44.091449 19.789058 -2.461344 -7.849004 8.230402 -0.342701 -3.890315 0.000000 0.000000 0.000000 6.186702 1.053115 -2.720161 0.603022 1.080202 -1.011537 0.000000 0.000000 0.000000 8.111107 -0.782627 -3.125058 0.935268 -9.994596 -15.020838 -29.003637 9.663352 -23.683570 -6.081634 -30.584617 3.473987 0.000000 0.000000 0.000000 5.401206 0.839318 -3.817644 0.911747 3.510274 -10.809547 -20.741159 -31.353314 8.970793 -5.874542 19.016423 -6.157618 0.000000 0.000000 0.000000 
-118.200920 46.050247 2.553793 0.000000 0.000000 0.000000 -20.741457 42.370194 -46.237065 -91.911431 30.149295 4.010285 65.373175 7.903522 17.083290 2.121587 -2.617757 21.907150 0.000000 0.000000 0.000000 -29.430851 29.635077 -11.632191 -68.799389 14.681538 -26.233157 88.082502 15.123046 -5.143091 20.046720 18.598743 21.499685 0.000000 0.000000 0.000000 5.588935 -12.840951 -5.782424 15.686429 -7.842258 -45.134098 19.651048 -2.943242 -7.929628 8.224513 -0.606035 -3.991055 0.000000 0.000000 0.000000 6.044134 0.841798 -2.702448 0.497237 1.077716 -1.008335 0.000000 0.000000 0.000000 8.095425 -0.997011 -2.920084 1.002248 -9.977486 -14.280537 -30.061981 9.144147 -23.313925 -6.452869 -31.644229 3.614759 0.000000 0.000000 0.000000 5.215145 0.584850 -3.882621 0.641167 2.612734 -10.992726 -20.346828 -32.891520 8.473680 -5.785045 19.584876 -6.483320 0.000000 0.000000 0.000000 
-117.805008 47.722168 1.482817 0.000000 0.000000 0.000000 -18.511467 43.287816 -47.668618 -91.432300 30.619212 4.103955 68.244580 9.870312 15.777578 3.577118 -0.443354 21.845207 0.000000 0.000000 0.000000 -28.555949 30.815372 -12.079173 -68.094104 15.016979 -26.595906 86.332758 14.667693 -4.549773 19.100622 17.645486 21.547628 0.000000 0.000000 0.000000 5.483192 -13.492531 -5.884345 15.909594 -8.076506 -46.233725 19.542909 -3.453235 -7.974943 8.228460 -0.881619 -4.066702 0.000000 0.000000 0.000000 5.891711 0.623319 -2.691387 0.397883 1.070986 -1.011828 0.000000 0.000000 0.000000 8.032095 -1.222957 -2.707750 1.033791 -10.013616 -13.515908 -31.233280 8.563211 -22.837369 -6.841655 -32.685126 3.765279 0.000000 0.000000 0.000000 4.994565 0.316585 -3.929381 0.348815 1.716179 -11.154897 -20.026540 -34.409892 8.071032 -5.730264 20.196050 -6.773626 0.000000 0.000000 0.000000 
-117.323685 49.411743 0.622892 0.000000 0.000000 0.000000 -15.250119 44.828721 -49.924031 -90.661308 31.572488 3.836011 70.598276 11.435563 13.976439 4.640005 1.678180 20.943892 0.000000 0.000000 0.000000 -27.754064 32.041941 -12.956820 -67.543140 15.512403 -27.247377 85.041039 14.147695 -3.956886 18.349399 16.634550 21.616072 0.000000 0.000000 0.000000 5.398179 -14.015051 -6.000307 16.303974 -8.156325 -47.326118 19.456832 -3.959701 -8.004227 8.238171 -1.153090 -4.125084 0.000000 0.000000 0.000000 5.766552 0.411800 -2.690839 0.321603 1.065681 -1.021927 0.000000 0.000000 0.000000 7.938270 -1.460009 -2.492239 1.042110 -10.118503 -12.733196 -32.461994 7.919240 -22.285159 -7.232024 -33.668140 3.911363 0.000000 0.000000 0.000000 4.757588 0.036910 -3.955676 0.052387 0.818097 -11.291469 -19.690542 -35.864814 7.936880 -5.710688 20.907962 -6.958338 0.000000 0.000000 0.000000 
-116.730064 50.955879 -0.386736 0.000000 0.000000 0.000000 -11.165189 46.538143 -53.188671 -89.602123 33.025167 3.009763 72.514138 12.515101 11.702312 5.362492 3.658133 19.106969 0.000000 0.000000 0.000000 -27.490869 33.411810 -13.730328 -67.511256 16.092846 -27.827714 84.220269 13.691700 -3.360453 17.731277 15.680369 21.852055 0.000000 0.000000 0.000000 5.351312 -14.307327 -6.081532 16.995259 -7.961555 -48.120943 19.324413 -4.452827 -7.992557 8.216618 -1.418893 -4.150000 0.000000 0.000000 0.000000 5.607918 0.215961 -2.679762 0.240914 1.060613 -1.024961 0.000000 0.000000 0.000000 7.819528 -1.699602 -2.273855 1.033887 -10.297845 -11.918760 -33.859509 7.305709 -21.592403 -7.665573 -34.485611 4.061063 0.000000 0.000000 0.000000 4.507255 -0.234973 -3.954887 -0.233477 -0.027022 -11.362006 -19.404190 -37.184117 8.110792 -5.767079 21.725785 -6.986647 0.000000 0.000000 0.000000 
